#!OML:ASF F:\VICON\USERDATA\INSTALL\rory3\rory3.ASF
:FULLY-SPECIFIED
:DEGREES
631
root 0.898517 15.822 44.637 -1.56806 -1.74873 5.03355
lowerback 13.4436 -0.101824 -9.40433
upperback -4.65025 -1.82495 0.559623
thorax -12.4933 -0.0798006 6.3853
lowerneck -9.68085 -8.18227 -6.81841
upperneck 21.407 -11.2938 4.76301
head 8.95544 -5.42 1.48761
rclavicle 1.11568e-014 1.98785e-015
rhumerus -47.0987 -3.76799 -83.9839
rradius 24.7045
rwrist 9.12793
rhand -9.05595 21.0005
rfingers 7.12502
rthumb 16.8926 -8.28482
lclavicle 1.11568e-014 1.98785e-015
lhumerus -33.007 2.63687 85.5413
lradius 22.3713
lwrist -1.7185
lhand -5.5415 19.2698
lfingers 7.12502
lthumb 20.2731 48.2317
rfemur -29.5046 0.727509 15.8968
rtibia 58.7421
rfoot -11.2171 -7.29708
rtoes 28.4258
lfemur -7.04696 -11.9604 -33.1358
ltibia 29.7861
lfoot -16.0876 7.85483
ltoes 11.636
632
root 0.902644 15.8231 44.7168 -1.39901 -1.69565 5.25836
lowerback 13.4311 -0.108661 -9.50791
upperback -4.72836 -1.86887 0.457208
thorax -12.5711 -0.0903878 6.34012
lowerneck -9.42675 -8.45729 -7.06492
upperneck 21.2914 -11.6894 4.95257
head 8.92307 -5.61319 1.5521
rclavicle 1.8313e-014 -7.95139e-016
rhumerus -47.0306 -3.77566 -84.0993
rradius 25.3656
rwrist 9.02356
rhand -8.65581 20.2362
rfingers 7.12502
rthumb 17.2777 -9.01581
lclavicle 1.8313e-014 -7.95139e-016
lhumerus -32.8704 2.57395 85.6256
lradius 22.8451
lwrist -1.77681
lhand -5.41914 19.0901
lfingers 7.12502
lthumb 20.3907 48.0396
rfemur -29.6869 1.02903 15.5172
rtibia 56.6905
rfoot -11.7898 -7.06446
rtoes 29.8182
lfemur -6.61352 -12.0946 -33.4794
ltibia 29.4145
lfoot -16.3721 7.91438
ltoes 11.4476
633
root 0.898447 15.821 44.7943 -1.30973 -1.70605 5.13928
lowerback 13.3621 -0.126891 -9.37457
upperback -4.66848 -1.85669 0.462216
thorax -12.4625 -0.103631 6.26327
lowerneck -9.28165 -8.71311 -7.37268
upperneck 21.1577 -12.0669 5.26395
head 8.91737 -5.78816 1.66385
rclavicle -3.08116e-015 -7.15625e-015
rhumerus -46.6403 -3.84491 -84.2344
rradius 25.8286
rwrist 8.92311
rhand -8.2456 19.7791
rfingers 7.12502
rthumb 17.6725 -9.43774
lclavicle -3.08116e-015 -7.15625e-015
lhumerus -32.5565 2.2188 85.7915
lradius 23.4917
lwrist -1.135
lhand -5.27708 19.1663
lfingers 7.12502
lthumb 20.5272 48.1011
rfemur -29.7039 1.63611 15.5513
rtibia 54.5645
rfoot -12.5736 -6.98718
rtoes 30.4801
lfemur -6.12355 -12.1727 -33.4135
ltibia 28.8856
lfoot -16.4538 8.04435
ltoes 10.8158
634
root 0.894213 15.829 44.8759 -1.21006 -1.78747 5.0332
lowerback 13.3348 -0.108721 -9.27369
upperback -4.66486 -1.8108 0.458175
thorax -12.4511 -0.0911592 6.18982
lowerneck -9.22666 -8.97318 -7.57166
upperneck 21.2095 -12.4567 5.47966
head 8.98141 -5.96577 1.71815
rclavicle 9.16894e-015 -2.26615e-014
rhumerus -46.3255 -3.8112 -84.4762
rradius 25.8986
rwrist 8.55663
rhand -8.73605 20.318
rfingers 7.12502
rthumb 17.2005 -8.94071
lclavicle 9.16894e-015 -2.26615e-014
lhumerus -32.2974 1.73926 86.0181
lradius 24.1004
lwrist -0.178209
lhand -5.01825 19.7087
lfingers 7.12502
lthumb 20.7759 48.6164
rfemur -29.7132 2.3837 15.5238
rtibia 52.394
rfoot -13.0608 -7.31069
rtoes 30.522
lfemur -5.56599 -12.2183 -33.3544
ltibia 28.2448
lfoot -16.4925 8.24172
ltoes 10.1909
